<svg data-v-fde0c5aa="" xmlns="http://www.w3.org/2000/svg" viewBox="0 0 300 300" class="font"><!----><defs data-v-fde0c5aa=""><!----></defs><rect data-v-fde0c5aa="" fill="transparent" x="0" y="0" width="300px" height="300px" class="logo-background-square"></rect><defs data-v-fde0c5aa=""><linearGradient data-v-fde0c5aa="" gradientTransform="rotate(25)" id="52ee39c5-c8bc-4722-af35-485359c0765e" x1="0%" y1="0%" x2="100%" y2="0%"><stop data-v-fde0c5aa="" offset="0%" stop-color="#FF0125" stop-opacity="1"></stop><stop data-v-fde0c5aa="" offset="100%" stop-color="#FF0125" stop-opacity="1"></stop></linearGradient></defs><g data-v-fde0c5aa="" id="8eb7df37-0f00-4b2f-8002-a465a653175c" fill="url(#52ee39c5-c8bc-4722-af35-485359c0765e)" transform="matrix(2.8713128566741943,0,0,2.8713128566741943,39.511876806933955,128.66952330045834)"><path d="M7.15 0.81L6.36 1.74L6.36 1.74Q6.24 1.74 6.19 1.72L6.19 1.72L6.16 1.76L6.16 1.76Q6.06 1.78 5.97 1.79L5.97 1.79L5.97 1.79Q5.88 1.81 5.77 1.83L5.77 1.83L5.73 1.83L5.73 1.83Q5.35 1.90 4.90 2.03L4.90 2.03L4.90 2.03Q4.45 2.16 3.99 2.34L3.99 2.34L3.99 2.34Q3.44 2.70 2.90 3.21L2.90 3.21L2.90 3.21Q2.72 3.70 2.60 4.21L2.60 4.21L2.60 4.21Q2.49 4.72 2.58 5.21L2.58 5.21L2.58 5.21Q2.97 5.22 3.40 5.11L3.40 5.11L3.40 5.11Q3.84 5.00 4.28 4.87L4.28 4.87L4.28 4.87Q4.72 4.75 5.16 4.65L5.16 4.65L5.16 4.65Q5.60 4.55 5.99 4.59L5.99 4.59L5.99 4.59Q6.10 4.62 6.24 4.66L6.24 4.66L6.24 4.66Q6.38 4.69 6.52 4.72L6.52 4.72L6.52 4.72Q6.90 4.68 7.17 4.70L7.17 4.70L7.17 4.70Q7.43 4.72 7.60 4.87L7.60 4.87L7.60 4.87Q7.76 4.90 7.80 4.96L7.80 4.96L7.80 4.96Q7.97 5.24 7.99 5.50L7.99 5.50L7.99 5.50Q8.01 5.75 7.92 5.99L7.92 5.99L7.92 5.99Q7.92 6.34 7.77 6.69L7.77 6.69L7.77 6.69Q7.62 7.04 7.38 7.36L7.38 7.36L7.38 7.36Q7.20 7.70 6.92 8.02L6.92 8.02L6.92 8.02Q6.65 8.33 6.36 8.62L6.36 8.62L6.36 8.62Q6.06 8.90 5.77 9.16L5.77 9.16L5.77 9.16Q5.47 9.42 5.25 9.65L5.25 9.65L5.25 9.65Q4.80 10.14 4.43 10.38L4.43 10.38L4.43 10.38Q4.06 10.63 3.64 10.70L3.64 10.70L3.64 10.70Q3.26 10.85 2.87 10.93L2.87 10.93L2.87 10.93Q2.84 10.93 2.81 10.94L2.81 10.94L2.81 10.94Q2.77 10.95 2.74 10.95L2.74 10.95L2.74 10.95Q2.63 11.03 2.59 11.07L2.59 11.07L2.59 11.07Q2.59 11.05 2.60 11.03L2.60 11.03L2.60 11.03Q2.62 11.00 2.62 10.98L2.62 10.98L2.62 10.98Q2.34 11.02 2.11 11.02L2.11 11.02L2.11 11.02Q1.89 11.02 1.67 10.99L1.67 10.99L1.67 10.99Q1.46 10.96 1.23 10.89L1.23 10.89L1.23 10.89Q1.01 10.82 0.71 10.74L0.71 10.74L0.71 10.74Q0.56 10.68 0.41 10.63L0.41 10.63L0.41 10.63Q0.27 10.57 0.17 10.43L0.17 10.43L0.17 10.43Q0.28 10.32 0.39 10.22L0.39 10.22L0.39 10.22Q0.50 10.12 0.62 10.01L0.62 10.01L0.62 10.01Q0.57 9.88 0.49 9.76L0.49 9.76L0.49 9.76Q0.50 9.63 0.59 9.48L0.59 9.48L0.59 9.48Q0.69 9.32 0.82 9.18L0.82 9.18L0.82 9.18Q0.95 9.04 1.11 8.95L1.11 8.95L1.11 8.95Q1.26 8.86 1.40 8.89L1.40 8.89L1.41 8.88L1.41 8.88Q1.41 8.90 1.44 8.93L1.44 8.93L1.44 8.93Q1.53 9.04 1.61 9.04L1.61 9.04L1.51 9.16L1.51 9.16Q1.53 9.24 1.58 9.31L1.58 9.31L1.58 9.31Q1.64 9.42 1.81 9.52L1.81 9.52L1.83 9.49L1.83 9.49Q2.38 9.60 2.85 9.62L2.85 9.62L2.85 9.62Q3.32 9.63 3.77 9.56L3.77 9.56L3.77 9.56Q3.99 9.35 4.20 9.13L4.20 9.13L4.20 9.13Q4.41 8.92 4.65 8.69L4.65 8.69L4.66 8.68L4.66 8.68Q4.69 8.65 4.73 8.62L4.73 8.62L4.73 8.62Q4.76 8.58 4.80 8.55L4.80 8.55L4.87 8.48L4.87 8.48Q4.98 8.37 5.10 8.26L5.10 8.26L5.10 8.26Q5.22 8.15 5.35 8.04L5.35 8.04L5.35 8.04Q5.39 7.99 5.44 7.96L5.44 7.96L5.44 7.96Q5.49 7.92 5.53 7.88L5.53 7.88L5.53 7.88Q5.66 7.42 5.65 6.96L5.65 6.96L5.65 6.96Q5.64 6.50 5.46 5.94L5.46 5.94L5.42 5.94L5.39 5.96L5.39 5.95L5.39 5.95Q4.89 6.05 4.40 6.20L4.40 6.20L4.40 6.20Q3.91 6.36 3.41 6.49L3.41 6.49L3.41 6.49Q2.91 6.62 2.42 6.69L2.42 6.69L2.42 6.69Q1.93 6.76 1.44 6.68L1.44 6.68L1.44 6.68Q1.29 6.65 1.15 6.58L1.15 6.58L1.15 6.58Q1.01 6.51 0.87 6.44L0.87 6.44L0.87 6.44Q0.70 6.37 0.64 6.21L0.64 6.21L0.64 6.21Q0.57 6.05 0.60 5.85L0.60 5.85L0.60 5.85Q0.55 5.67 0.58 5.46L0.58 5.46L0.58 5.46Q0.62 5.25 0.70 5.01L0.70 5.01L0.70 5.01Q0.71 4.80 0.73 4.59L0.73 4.59L0.73 4.59Q0.76 4.38 0.79 4.19L0.79 4.19L0.79 4.19Q0.83 4.00 0.85 3.87L0.85 3.87L0.85 3.87Q0.88 3.74 0.90 3.68L0.90 3.68L0.90 3.68Q0.91 3.64 0.95 3.56L0.95 3.56L0.95 3.56Q0.99 3.47 1.04 3.39L1.04 3.39L1.04 3.39Q1.09 3.30 1.13 3.24L1.13 3.24L1.13 3.24Q1.18 3.18 1.18 3.18L1.18 3.18L1.18 3.18Q1.39 2.83 1.69 2.55L1.69 2.55L1.69 2.55Q2.00 2.28 2.35 2.06L2.35 2.06L2.35 2.06Q2.69 1.85 3.06 1.66L3.06 1.66L3.06 1.66Q3.43 1.47 3.78 1.29L3.78 1.29L3.78 1.29Q4.10 1.12 4.41 0.94L4.41 0.94L4.41 0.94Q4.72 0.76 5.10 0.71L5.10 0.71L5.10 0.71Q5.26 0.70 5.43 0.73L5.43 0.73L5.43 0.73Q5.60 0.76 5.77 0.80L5.77 0.80L5.77 0.80Q5.85 0.81 5.94 0.82L5.94 0.82L5.94 0.82Q6.03 0.83 6.13 0.84L6.13 0.84L6.13 0.84Q6.37 0.80 6.63 0.79L6.63 0.79L6.63 0.79Q6.89 0.78 7.15 0.81L7.15 0.81ZM4.51 9.34L5.14 8.97L5.14 8.97Q5.18 8.88 5.21 8.79L5.21 8.79L5.21 8.79Q5.25 8.69 5.29 8.60L5.29 8.60L5.29 8.60Q5.08 8.78 4.89 8.97L4.89 8.97L4.89 8.97Q4.70 9.16 4.51 9.34L4.51 9.34ZM6.62 6.38L6.62 6.38L6.62 6.38Q6.59 6.36 6.59 6.32L6.59 6.32L6.59 6.32Q6.58 6.29 6.55 6.26L6.55 6.26L6.55 6.26Q6.54 6.71 6.43 7.17L6.43 7.17L6.43 7.17Q6.51 7.10 6.59 7.03L6.59 7.03L6.59 7.03Q6.66 6.96 6.75 6.89L6.75 6.89L6.75 6.89Q6.73 6.65 6.62 6.38ZM1.74 3.36L1.74 3.36L1.74 3.36Q2.03 3.00 2.42 2.67L2.42 2.67L2.42 2.67Q2.45 2.63 2.47 2.59L2.47 2.59L2.47 2.59Q2.49 2.55 2.52 2.51L2.52 2.51L2.52 2.51Q2.32 2.62 2.17 2.72L2.17 2.72L2.17 2.72Q2.02 2.83 1.92 2.90L1.92 2.90L1.92 2.90Q1.82 3.00 1.74 3.36ZM1.61 4.69L1.61 4.69L1.61 4.69Q1.64 4.83 1.69 4.90L1.69 4.90L1.82 4.31L1.82 4.31Q1.69 4.49 1.61 4.69ZM8.37 5.75L8.37 5.75L8.37 5.75Q8.39 5.68 8.46 5.56L8.46 5.56L8.46 5.56Q8.54 5.43 8.65 5.29L8.65 5.29L8.65 5.29Q8.75 5.15 8.87 5.03L8.87 5.03L8.87 5.03Q8.99 4.90 9.11 4.84L9.11 4.84L9.11 4.84Q9.16 4.79 9.20 4.74L9.20 4.74L9.20 4.74Q9.24 4.69 9.31 4.63L9.31 4.63L9.31 4.63Q9.35 4.61 9.42 4.54L9.42 4.54L9.42 4.54Q9.49 4.48 9.57 4.44L9.57 4.44L9.57 4.44Q9.65 4.40 9.73 4.38L9.73 4.38L9.73 4.38Q9.81 4.35 9.87 4.41L9.87 4.41L9.87 4.41Q9.88 4.42 9.88 4.44L9.88 4.44L9.88 4.44Q9.88 4.44 9.90 4.45L9.90 4.45L9.90 4.45Q10.14 4.34 10.37 4.26L10.37 4.26L10.37 4.26Q10.61 4.19 10.86 4.12L10.86 4.12L10.86 4.12Q11.40 3.96 11.84 3.95L11.84 3.95L11.84 3.95Q12.29 3.93 12.71 4.31L12.71 4.31L12.71 4.31Q12.74 4.33 12.77 4.33L12.77 4.33L12.77 4.33Q12.80 4.33 12.82 4.34L12.82 4.34L12.82 4.34Q13.36 4.52 13.73 4.94L13.73 4.94L13.73 4.94Q14.10 5.36 14.29 5.89L14.29 5.89L14.29 5.89Q14.49 6.41 14.51 6.99L14.51 6.99L14.51 6.99Q14.53 7.57 14.36 8.08L14.36 8.08L14.36 8.08Q14.29 8.29 14.15 8.48L14.15 8.48L14.15 8.48Q14.01 8.68 13.83 8.87L13.83 8.87L13.83 8.87Q13.65 9.06 13.46 9.21L13.46 9.21L13.46 9.21Q13.27 9.37 13.12 9.49L13.12 9.49L13.12 9.49Q12.59 9.91 11.93 10.18L11.93 10.18L11.93 10.18Q11.27 10.44 10.64 10.70L10.64 10.70L10.64 10.70Q10.64 10.98 10.63 11.28L10.63 11.28L10.63 11.28Q10.63 11.58 10.63 11.88L10.63 11.88L10.63 11.88Q10.64 12.18 10.70 12.47L10.70 12.47L10.70 12.47Q10.75 12.77 10.88 13.02L10.88 13.02L10.88 13.02Q10.74 13.15 10.61 13.27L10.61 13.27L10.61 13.27Q10.47 13.40 10.35 13.52L10.35 13.52L10.35 13.66L10.35 13.68L10.33 13.68L10.33 13.68Q10.30 13.78 10.19 13.94L10.19 13.94L10.19 13.94Q10.08 14.10 9.94 14.25L9.94 14.25L9.94 14.25Q9.80 14.39 9.65 14.47L9.65 14.47L9.65 14.47Q9.51 14.55 9.42 14.46L9.42 14.46L9.42 14.46Q9.41 14.43 9.41 14.41L9.41 14.41L9.41 14.41Q9.41 14.38 9.39 14.35L9.39 14.35L9.39 14.35Q9.34 14.38 9.28 14.32L9.28 14.32L9.28 14.32Q9.21 14.25 9.21 14.13L9.21 14.13L9.21 14.13Q9.21 14 9.21 13.89L9.21 13.89L9.21 13.89Q9.14 13.73 9.11 13.62L9.11 13.62L9.11 13.62Q9.07 13.50 9.02 13.27L9.02 13.27L9.02 13.27Q8.86 12.74 8.81 12.19L8.81 12.19L8.81 12.19Q8.75 11.63 8.74 11.09L8.74 11.09L8.74 11.09Q8.72 10.85 8.72 10.63L8.72 10.63L8.72 10.63Q8.71 10.40 8.71 10.16L8.71 10.16L8.71 10.16Q8.68 9.95 8.67 9.74L8.67 9.74L8.67 9.74Q8.65 9.52 8.62 9.30L8.62 9.30L8.62 9.30Q8.60 9.03 8.59 8.76L8.59 8.76L8.59 8.76Q8.58 8.50 8.57 8.22L8.57 8.22L8.57 8.22Q8.51 7.81 8.46 7.41L8.46 7.41L8.46 7.41Q8.41 7 8.39 6.59L8.39 6.59L8.39 6.59Q8.37 6.43 8.34 6.17L8.34 6.17L8.34 6.17Q8.32 5.92 8.37 5.75ZM12.03 5.46L12.03 5.46L12.03 5.46Q11.93 5.39 11.84 5.34L11.84 5.34L11.84 5.34Q11.75 5.29 11.65 5.24L11.65 5.24L11.65 5.24Q11.48 5.22 11.30 5.24L11.30 5.24L11.30 5.24Q11.12 5.26 10.91 5.29L10.91 5.29L10.91 5.29Q10.63 5.35 10.58 5.36L10.58 5.36L10.58 5.36Q10.53 5.38 10.47 5.42L10.47 5.42L10.47 5.42Q10.39 6.43 10.43 7.41L10.43 7.41L10.43 7.41Q10.47 8.39 10.54 9.38L10.54 9.38L10.54 9.38Q10.67 9.32 10.74 9.30L10.74 9.30L10.74 9.30Q10.81 9.28 10.87 9.27L10.87 9.27L10.87 9.27Q10.93 9.25 11.00 9.25L11.00 9.25L11.00 9.25Q11.07 9.24 11.19 9.20L11.19 9.20L11.19 9.20Q11.47 8.96 11.76 8.74L11.76 8.74L11.76 8.74Q12.05 8.51 12.29 8.27L12.29 8.27L12.29 8.27Q12.53 8.02 12.67 7.76L12.67 7.76L12.67 7.76Q12.81 7.50 12.80 7.20L12.80 7.20L12.80 7.20Q12.77 6.89 12.59 6.42L12.59 6.42L12.59 6.42Q12.42 5.95 12.14 5.54L12.14 5.54L12.14 5.54Q12.11 5.52 12.08 5.50L12.08 5.50L12.08 5.50Q12.05 5.49 12.03 5.46ZM11.69 9.44L11.69 9.44L11.69 9.44Q11.65 9.51 11.61 9.55L11.61 9.55L11.61 9.55Q11.56 9.60 11.52 9.67L11.52 9.67L11.52 9.67Q11.73 9.59 12.05 9.47L12.05 9.47L12.05 9.47Q12.36 9.35 12.66 9.21L12.66 9.21L12.66 9.21Q12.96 9.07 13.20 8.91L13.20 8.91L13.20 8.91Q13.44 8.75 13.50 8.58L13.50 8.58L13.50 8.58Q13.57 8.43 13.59 8.26L13.59 8.26L13.59 8.26Q13.61 8.09 13.61 7.94L13.61 7.94L13.61 7.94Q13.44 8.19 13.21 8.41L13.21 8.41L13.21 8.41Q12.98 8.62 12.70 8.82L12.70 8.82L12.70 8.82Q12.49 8.97 12.29 9.09L12.29 9.09L12.29 9.09Q12.08 9.21 11.87 9.34L11.87 9.34L11.87 9.34Q11.83 9.37 11.78 9.39L11.78 9.39L11.78 9.39Q11.73 9.41 11.69 9.44ZM15.58 6.82L15.58 6.82L15.58 6.82Q15.78 6.48 16.04 6.17L16.04 6.17L16.04 6.17Q16.30 5.87 16.60 5.62L16.60 5.62L16.60 5.62Q16.90 5.38 17.23 5.21L17.23 5.21L17.23 5.21Q17.57 5.05 17.91 5.00L17.91 5.00L17.91 5.00Q18.30 4.73 18.74 4.55L18.74 4.55L18.74 4.55Q19.18 4.37 19.49 4.52L19.49 4.52L19.49 4.52Q19.88 4.75 20.10 5.05L20.10 5.05L20.10 5.05Q20.26 5.10 20.38 5.18L20.38 5.18L20.38 5.18Q20.43 5.22 20.47 5.26L20.47 5.26L20.47 5.26Q20.51 5.31 20.55 5.36L20.55 5.36L20.55 5.36Q20.71 5.22 20.83 5.17L20.83 5.17L20.83 5.17Q20.96 5.11 20.99 5.25L20.99 5.25L20.99 5.25Q21.04 5.66 21.06 6.05L21.06 6.05L21.06 6.05Q21.07 6.45 21.06 6.86L21.06 6.86L21.06 6.86Q21.07 6.92 21.08 6.96L21.08 6.96L21.08 6.96Q21.08 7 21.08 7.04L21.08 7.04L21.08 7.04Q21.08 7.31 21.12 7.60L21.12 7.60L21.12 7.60Q21.15 7.90 21.03 8.12L21.03 8.12L21.03 8.12Q21.03 8.19 21.02 8.27L21.02 8.27L21.02 8.27Q21.01 8.34 21.01 8.41L21.01 8.41L21.01 8.41Q21.08 8.95 21.10 9.39L21.10 9.39L21.10 9.39Q21.13 9.53 21.15 9.67L21.15 9.67L21.15 9.67Q21.17 9.80 21.18 9.93L21.18 9.93L21.18 9.93Q21.20 10.01 21.25 10.08L21.25 10.08L21.20 10.14L21.20 10.14Q21.20 10.39 21.14 10.62L21.14 10.62L21.14 10.62Q21.08 10.85 20.92 11.06L20.92 11.06L20.92 11.06Q20.87 11.10 20.78 11.19L20.78 11.19L20.78 11.19Q20.69 11.28 20.59 11.37L20.59 11.37L20.59 11.37Q20.48 11.45 20.38 11.49L20.38 11.49L20.38 11.49Q20.29 11.52 20.22 11.45L20.22 11.45L20.22 11.45Q20.20 11.44 20.20 11.42L20.20 11.42L20.20 11.42Q20.20 11.42 20.19 11.41L20.19 11.41L20.19 11.41Q20.17 11.41 20.16 11.42L20.16 11.42L20.12 11.42L20.12 11.42Q20.02 11.42 19.99 11.40L19.99 11.40L19.99 11.40Q19.92 11.19 19.92 10.91L19.92 10.91L19.92 10.91Q19.92 10.64 19.89 10.44L19.89 10.44L19.89 10.44Q19.87 10.23 19.84 10.02L19.84 10.02L19.84 10.02Q19.82 9.81 19.80 9.59L19.80 9.59L19.80 9.59Q19.43 9.83 19.00 10.00L19.00 10.00L19.00 10.00Q18.56 10.16 18.07 10.30L18.07 10.30L18.07 10.30Q17.99 10.33 17.91 10.35L17.91 10.35L17.91 10.35Q17.84 10.37 17.75 10.40L17.75 10.40L17.75 10.40Q17.54 10.51 17.32 10.61L17.32 10.61L17.32 10.61Q17.11 10.70 16.89 10.74L16.89 10.74L16.89 10.74Q16.67 10.78 16.46 10.75L16.46 10.75L16.46 10.75Q16.25 10.72 16.04 10.57L16.04 10.57L16.04 10.57Q15.67 10.30 15.36 9.93L15.36 9.93L15.36 9.93Q15.05 9.56 14.90 9.13L14.90 9.13L14.90 9.13Q14.84 8.99 14.85 8.82L14.85 8.82L14.85 8.82Q14.87 8.65 14.92 8.47L14.92 8.47L14.92 8.47Q14.84 8.13 14.90 7.92L14.90 7.92L14.90 7.92Q14.98 7.62 15.16 7.34L15.16 7.34L15.16 7.34Q15.34 7.07 15.58 6.82ZM17.11 9.21L17.11 9.21L17.11 9.21Q17.28 9.24 17.60 9.21L17.60 9.21L17.60 9.21Q17.92 9.17 18.30 9.07L18.30 9.07L18.30 9.07Q18.68 8.97 19.05 8.82L19.05 8.82L19.05 8.82Q19.43 8.67 19.70 8.47L19.70 8.47L19.70 8.47Q19.67 8.15 19.65 7.81L19.65 7.81L19.65 7.81Q19.63 7.48 19.60 7.14L19.60 7.14L19.60 7.14Q19.59 7.03 19.59 6.92L19.59 6.92L19.59 6.92Q19.59 6.79 19.57 6.68L19.57 6.68L19.52 6.72L19.52 6.72Q19.50 6.65 19.50 6.57L19.50 6.57L19.50 6.57Q19.50 6.48 19.50 6.41L19.50 6.41L19.50 6.41Q19.47 6.34 19.44 6.28L19.44 6.28L19.44 6.28Q19.40 6.22 19.38 6.15L19.38 6.15L19.25 6.26L19.25 6.26Q19.21 6.19 19.21 6.10L19.21 6.10L19.21 6.10Q19.21 6.01 19.18 5.94L19.18 5.94L19.18 5.94Q18.93 5.85 18.70 5.80L18.70 5.80L18.70 5.80Q18.48 5.75 18.27 5.74L18.27 5.74L18.27 5.74Q18.07 5.74 17.89 5.77L17.89 5.77L17.89 5.77Q17.70 5.80 17.50 5.84L17.50 5.84L17.50 5.84Q16.94 6.06 16.39 6.82L16.39 6.82L16.39 6.82Q16.20 7.06 16.02 7.39L16.02 7.39L16.02 7.39Q15.99 7.81 16.10 8.22L16.10 8.22L16.10 8.22Q16.18 8.34 16.29 8.51L16.29 8.51L16.29 8.51Q16.39 8.68 16.52 8.83L16.52 8.83L16.52 8.83Q16.65 8.97 16.79 9.09L16.79 9.09L16.79 9.09Q16.94 9.20 17.11 9.21ZM24.75 9.07L24.75 9.07L24.75 9.07Q25.07 9.14 25.40 9.13L25.40 9.13L25.40 9.13Q25.73 9.11 26.05 9.07L26.05 9.07L26.05 9.07Q26.77 8.90 27.44 8.51L27.44 8.51L27.44 8.51Q27.48 8.48 27.53 8.45L27.53 8.45L27.53 8.45Q27.58 8.41 27.64 8.39L27.64 8.39L27.64 8.39Q27.69 8.33 27.71 8.31L27.71 8.31L27.71 8.31Q27.72 8.29 27.73 8.27L27.73 8.27L27.73 8.27Q27.75 8.26 27.78 8.23L27.78 8.23L27.78 8.23Q27.80 8.20 27.86 8.15L27.86 8.15L27.86 8.15Q27.90 8.11 28.04 8.00L28.04 8.00L28.04 8.00Q28.17 7.90 28.29 7.83L28.29 7.83L28.35 7.77L28.38 7.80L28.38 7.80Q28.50 7.78 28.46 7.98L28.46 7.98L28.46 7.98Q28.29 8.44 27.95 8.81L27.95 8.81L27.95 8.81Q27.61 9.17 27.15 9.44L27.15 9.44L27.15 9.44Q26.84 9.70 26.49 9.96L26.49 9.96L26.49 9.96Q26.14 10.22 25.80 10.40L25.80 10.40L25.80 10.40Q25.45 10.58 25.14 10.68L25.14 10.68L25.14 10.68Q24.82 10.77 24.57 10.72L24.57 10.72L24.57 10.72Q24.16 10.64 23.81 10.46L23.81 10.46L23.81 10.46Q23.46 10.28 23.14 10.04L23.14 10.04L23.14 10.04Q22.44 9.51 22.06 9.01L22.06 9.01L22.06 9.01Q21.67 8.51 21.61 8.01L21.61 8.01L21.61 8.01Q21.55 7.50 21.81 6.96L21.81 6.96L21.81 6.96Q22.06 6.43 22.67 5.82L22.67 5.82L22.67 5.82Q23.09 5.25 23.69 4.88L23.69 4.88L23.69 4.88Q24.29 4.51 25.17 4.23L25.17 4.23L25.17 4.23Q25.35 4.17 25.59 4.14L25.59 4.14L25.59 4.14Q25.83 4.12 26.08 4.13L26.08 4.13L26.08 4.13Q26.29 4.07 26.56 4.06L26.56 4.06L26.56 4.06Q26.82 4.05 27.08 4.09L27.08 4.09L27.08 4.09Q27.15 3.98 27.29 3.81L27.29 3.81L27.29 3.81Q27.43 3.65 27.56 3.53L27.56 3.53L27.56 3.53Q27.69 3.40 27.81 3.36L27.81 3.36L27.81 3.36Q27.93 3.32 27.96 3.46L27.96 3.46L27.96 3.46Q27.99 3.72 27.97 3.99L27.97 3.99L27.97 3.99Q27.96 4.26 27.90 4.52L27.90 4.52L27.90 4.52Q27.93 4.59 27.96 4.65L27.96 4.65L27.96 4.65Q27.99 4.70 28 4.77L28 4.77L28 4.77Q27.93 5.04 27.73 5.24L27.73 5.24L27.73 5.24Q27.71 5.46 27.66 5.67L27.66 5.67L27.66 5.67Q27.62 5.88 27.52 6.09L27.52 6.09L27.44 6.22L27.44 6.24L27.44 6.24Q27.51 6.36 27.59 6.41L27.59 6.41L27.59 6.41Q27.68 6.47 27.76 6.55L27.76 6.55L27.76 6.55Q27.52 6.78 27.31 6.99L27.31 6.99L27.31 6.99Q27.09 7.20 26.85 7.42L26.85 7.42L26.85 7.42Q26.77 7.34 26.66 7.27L26.66 7.27L26.66 7.27Q26.56 7.21 26.53 7.10L26.53 7.10L26.53 7.10Q26.49 6.99 26.60 6.55L26.60 6.55L26.60 6.55Q26.59 6.41 26.61 6.23L26.61 6.23L26.61 6.23Q26.63 6.05 26.66 5.85L26.66 5.85L26.66 5.85Q26.63 5.77 26.61 5.68L26.61 5.68L26.61 5.68Q26.59 5.60 26.53 5.53L26.53 5.53L26.53 5.53Q26.50 5.50 26.48 5.49L26.48 5.49L26.48 5.49Q26.46 5.47 26.43 5.45L26.43 5.45L26.43 5.45Q26.26 5.38 26.11 5.30L26.11 5.30L26.11 5.30Q25.96 5.22 25.80 5.19L25.80 5.19L25.80 5.19Q25.54 5.14 25.19 5.14L25.19 5.14L25.19 5.14Q24.81 5.33 24.46 5.58L24.46 5.58L24.46 5.58Q24.11 5.82 23.81 6.10L23.81 6.10L23.81 6.10Q23.30 6.57 23.09 6.86L23.09 6.86L23.09 6.86Q22.89 7.15 23.00 7.48L23.00 7.48L23.00 7.48Q23.11 7.62 23.25 7.77L23.25 7.77L23.25 7.77Q23.39 7.92 23.58 8.13L23.58 8.13L23.58 8.13Q23.65 8.22 23.71 8.32L23.71 8.32L23.71 8.32Q23.77 8.41 23.86 8.53L23.86 8.53L23.86 8.53Q24.01 8.68 24.26 8.83L24.26 8.83L24.26 8.83Q24.37 8.92 24.50 8.97L24.50 8.97L24.50 8.97Q24.63 9.03 24.75 9.07ZM32.93 4.09L32.93 4.09L32.93 4.09Q33.01 4.09 33.25 4.12L33.25 4.12L33.25 4.12Q33.49 4.14 33.76 4.21L33.76 4.21L33.76 4.21Q34.03 4.28 34.27 4.41L34.27 4.41L34.27 4.41Q34.50 4.54 34.54 4.72L34.54 4.72L34.54 4.72Q34.68 4.87 34.78 5.08L34.78 5.08L34.78 5.08Q35.07 5.70 34.90 6.17L34.90 6.17L34.90 6.17Q34.97 6.19 35.04 6.20L35.04 6.20L35.04 6.20Q35.10 6.22 35.15 6.24L35.15 6.24L35.15 6.24Q35.18 6.37 35.12 6.50L35.12 6.50L35.12 6.50Q35.06 6.62 34.95 6.73L34.95 6.73L34.95 6.73Q34.85 6.85 34.72 6.94L34.72 6.94L34.72 6.94Q34.59 7.03 34.51 7.08L34.51 7.08L34.51 7.08Q34.27 7.22 33.94 7.25L33.94 7.25L33.94 7.25Q33.60 7.27 33.28 7.27L33.28 7.27L33.28 7.27Q32.69 7.34 32.14 7.46L32.14 7.46L32.14 7.46Q31.58 7.59 31.02 7.73L31.02 7.73L31.02 7.73Q30.76 7.80 30.50 7.88L30.50 7.88L30.50 7.88Q30.24 7.97 29.97 8.04L29.97 8.04L29.97 8.04Q30.23 8.69 30.77 9.13L30.77 9.13L30.77 9.13Q31.26 9.41 31.88 9.48L31.88 9.48L31.88 9.48Q32.49 9.55 33.07 9.51L33.07 9.51L33.53 9.38L33.53 9.38Q33.56 9.37 33.51 9.38L33.51 9.38L33.51 9.38Q33.46 9.39 33.39 9.41L33.39 9.41L33.39 9.41Q33.32 9.42 33.27 9.44L33.27 9.44L33.27 9.44Q33.22 9.45 33.26 9.44L33.26 9.44L33.26 9.44Q33.64 9.34 34.04 9.25L34.04 9.25L34.04 9.25Q34.44 9.17 34.82 9.03L34.82 9.03L34.82 9.03Q34.93 8.95 35.05 8.86L35.05 8.86L35.05 8.86Q35.17 8.76 35.32 8.71L35.32 8.71L35.32 8.71Q35.36 8.69 35.41 8.69L35.41 8.69L35.41 8.69Q35.46 8.68 35.50 8.69L35.50 8.69L35.50 8.69Q35.53 8.81 35.53 8.86L35.53 8.86L35.53 8.86Q35.46 9.11 35.27 9.30L35.27 9.30L35.27 9.30Q35.07 9.49 34.87 9.63L34.87 9.63L34.87 9.63Q34.61 9.77 34.33 9.88L34.33 9.88L34.33 9.88Q34.31 9.90 34.30 9.90L34.30 9.90L34.30 9.90Q33.98 10.09 33.60 10.20L33.60 10.20L33.60 10.20Q33.22 10.30 32.86 10.36L32.86 10.36L32.86 10.36Q32.52 10.42 32.13 10.44L32.13 10.44L32.13 10.44Q31.39 10.57 30.82 10.48L30.82 10.48L30.82 10.48Q30.25 10.39 29.83 10.01L29.83 10.01L29.83 10.01Q29.55 9.84 29.35 9.60L29.35 9.60L29.35 9.60Q29.15 9.35 29.05 9.02L29.05 9.02L29.05 9.02Q29.01 8.92 29.01 8.83L29.01 8.83L29.01 8.83Q29.01 8.74 29.02 8.64L29.02 8.64L29.02 8.64Q28.92 8.37 28.84 8.02L28.84 8.02L28.84 8.02Q28.77 7.77 28.85 7.50L28.85 7.50L28.85 7.50Q28.92 7.24 28.97 6.96L28.97 6.96L28.97 6.96Q29.01 6.66 29.18 6.37L29.18 6.37L29.18 6.37Q29.36 6.08 29.55 5.82L29.55 5.82L29.55 5.82Q29.90 5.36 30.27 5.05L30.27 5.05L30.27 5.05Q30.63 4.75 31.03 4.55L31.03 4.55L31.03 4.55Q31.43 4.35 31.90 4.25L31.90 4.25L31.90 4.25Q32.37 4.14 32.93 4.09ZM29.93 6.82L29.93 6.82L29.93 6.82Q29.93 6.92 29.95 7L29.95 7L29.95 7Q29.96 7.08 29.99 7.18L29.99 7.18L29.99 7.18Q30.23 7.07 30.48 6.99L30.48 6.99L30.48 6.99Q30.73 6.90 31.00 6.83L31.00 6.83L31.00 6.83Q31.53 6.66 32.07 6.54L32.07 6.54L32.07 6.54Q32.61 6.43 32.97 6.33L32.97 6.33L32.97 6.33Q33.21 6.26 33.45 6.20L33.45 6.20L33.45 6.20Q33.68 6.15 33.92 6.10L33.92 6.10L33.92 6.10Q33.91 6.06 33.89 6.03L33.89 6.03L33.89 6.03Q33.88 5.99 33.87 5.95L33.87 5.95L33.87 5.95Q33.70 5.59 33.39 5.40L33.39 5.40L33.39 5.40Q33.08 5.21 32.68 5.18L32.68 5.18L32.68 5.18Q32.26 5.14 31.84 5.26L31.84 5.26L31.84 5.26Q31.43 5.38 31.07 5.61L31.07 5.61L31.07 5.61Q30.70 5.84 30.41 6.15L30.41 6.15L30.41 6.15Q30.11 6.45 29.93 6.82ZM30.11 5.82L30.11 5.82L30.11 5.82Q30.30 5.66 30.48 5.51L30.48 5.51L30.48 5.51Q30.66 5.36 30.86 5.22L30.86 5.22L30.86 5.22Q30.41 5.40 30.18 5.73L30.18 5.73L30.18 5.73Q30.16 5.75 30.15 5.77L30.15 5.77L30.15 5.77Q30.14 5.80 30.11 5.82ZM41.80 1.30L42.03 1.54L42.03 1.54Q42.10 1.41 42.18 1.29L42.18 1.29L42.18 1.29Q42.25 1.18 42.36 1.06L42.36 1.06L42.36 1.06Q42.41 1.02 42.36 1.14L42.36 1.14L42.36 1.14Q42.31 1.26 42.31 1.33L42.31 1.33L42.31 1.33Q42.28 1.46 42.29 1.69L42.29 1.69L42.29 1.69Q42.29 1.93 42.31 2.04L42.31 2.04L42.31 2.04Q42.34 2.42 42.39 2.79L42.39 2.79L42.39 2.79Q42.45 3.15 42.49 3.51L42.49 3.51L42.49 3.51Q42.49 3.53 42.50 3.53L42.50 3.53L42.49 3.54L42.49 3.54Q42.49 3.56 42.50 3.56L42.50 3.56L42.50 3.56Q42.50 3.57 42.50 3.58L42.50 3.58L42.50 3.58Q42.49 3.67 42.38 3.84L42.38 3.84L42.38 3.84Q42.27 4.00 42.12 4.16L42.12 4.16L42.12 4.16Q41.97 4.31 41.83 4.40L41.83 4.40L41.83 4.40Q41.68 4.48 41.58 4.40L41.58 4.40L41.58 4.38L41.58 4.38Q41.31 3.82 40.80 3.37L40.80 3.37L40.80 3.37Q40.29 2.93 39.66 2.73L39.66 2.73L39.23 3.14L39.23 3.14Q39.19 3.05 39.18 3.04L39.18 3.04L39.18 3.04Q39.17 3.02 38.99 3.09L38.99 3.09L38.99 3.09Q38.53 3.46 38.30 3.96L38.30 3.96L38.30 3.96Q38.08 4.45 38.02 5.00L38.02 5.00L38.02 5.00Q37.95 5.56 38.00 6.14L38.00 6.14L38.00 6.14Q38.04 6.72 38.11 7.24L38.11 7.24L38.11 7.24Q38.14 7.38 38.14 7.52L38.14 7.52L38.14 7.52Q38.14 7.64 38.16 7.77L38.16 7.77L38.16 7.77Q38.22 7.95 38.31 8.11L38.31 8.11L38.31 8.11Q38.40 8.27 38.47 8.46L38.47 8.46L38.47 8.46Q38.47 8.47 38.50 8.50L38.50 8.50L38.49 8.51L38.49 8.51Q38.49 8.60 38.42 8.74L38.42 8.74L38.42 8.74Q39.07 9.03 39.85 9.02L39.85 9.02L39.85 9.02Q40.63 9.02 41.40 8.69L41.40 8.69L41.40 8.69Q41.55 8.64 41.69 8.48L41.69 8.48L41.69 8.48Q41.83 8.32 41.97 8.14L41.97 8.14L41.97 8.14Q42.10 7.97 42.21 7.82L42.21 7.82L42.21 7.82Q42.32 7.67 42.39 7.64L42.39 7.64L42.39 7.64Q42.43 7.63 42.39 7.73L42.39 7.73L42.39 7.73Q42.34 7.83 42.28 7.90L42.28 7.90L43.04 7.39L43.04 7.39Q43.01 7.46 42.97 7.55L42.97 7.55L42.97 7.55Q42.92 7.63 42.90 7.66L42.90 7.66L42.90 7.66Q42.80 7.80 42.75 7.85L42.75 7.85L42.75 7.85Q42.70 7.91 42.67 7.95L42.67 7.95L42.67 7.95Q42.63 7.99 42.59 8.04L42.59 8.04L42.59 8.04Q42.55 8.09 42.45 8.20L42.45 8.20L42.45 8.20Q42.11 8.60 41.75 8.96L41.75 8.96L41.75 8.96Q41.38 9.32 40.92 9.53L40.92 9.53L40.92 9.53Q40.31 9.81 39.58 9.90L39.58 9.90L39.58 9.90Q38.85 9.98 38.17 9.83L38.17 9.83L38.17 9.83Q37.49 9.67 36.95 9.26L36.95 9.26L36.95 9.26Q36.40 8.85 36.15 8.13L36.15 8.13L36.15 8.13Q35.88 7.39 35.87 6.59L35.87 6.59L35.87 6.59Q35.85 5.78 36.06 5.01L36.06 5.01L36.06 5.01Q36.26 4.24 36.67 3.55L36.67 3.55L36.67 3.55Q37.09 2.86 37.67 2.35L37.67 2.35L37.67 2.35Q38.08 2.00 38.55 1.84L38.55 1.84L38.55 1.84Q39.02 1.68 39.51 1.68L39.51 1.68L39.51 1.68Q40.00 1.68 40.47 1.82L40.47 1.82L40.47 1.82Q40.95 1.96 41.36 2.24L41.36 2.24L41.36 2.24Q41.38 1.99 41.49 1.75L41.49 1.75L41.49 1.75Q41.59 1.51 41.80 1.30L41.80 1.30ZM43.09 7.35L43.04 7.39L43.04 7.39Q43.11 7.24 43.09 7.35L43.09 7.35ZM44.17 6.82L44.17 6.82L44.17 6.82Q44.37 6.48 44.63 6.17L44.63 6.17L44.63 6.17Q44.88 5.87 45.19 5.62L45.19 5.62L45.19 5.62Q45.49 5.38 45.82 5.21L45.82 5.21L45.82 5.21Q46.16 5.05 46.49 5.00L46.49 5.00L46.49 5.00Q46.89 4.73 47.33 4.55L47.33 4.55L47.33 4.55Q47.77 4.37 48.08 4.52L48.08 4.52L48.08 4.52Q48.47 4.75 48.69 5.05L48.69 5.05L48.69 5.05Q48.85 5.10 48.97 5.18L48.97 5.18L48.97 5.18Q49.01 5.22 49.06 5.26L49.06 5.26L49.06 5.26Q49.10 5.31 49.14 5.36L49.14 5.36L49.14 5.36Q49.29 5.22 49.42 5.17L49.42 5.17L49.42 5.17Q49.55 5.11 49.57 5.25L49.57 5.25L49.57 5.25Q49.63 5.66 49.64 6.05L49.64 6.05L49.64 6.05Q49.66 6.45 49.64 6.86L49.64 6.86L49.64 6.86Q49.66 6.92 49.66 6.96L49.66 6.96L49.66 6.96Q49.67 7 49.67 7.04L49.67 7.04L49.67 7.04Q49.67 7.31 49.71 7.60L49.71 7.60L49.71 7.60Q49.74 7.90 49.62 8.12L49.62 8.12L49.62 8.12Q49.62 8.19 49.61 8.27L49.61 8.27L49.61 8.27Q49.60 8.34 49.60 8.41L49.60 8.41L49.60 8.41Q49.67 8.95 49.69 9.39L49.69 9.39L49.69 9.39Q49.71 9.53 49.73 9.67L49.73 9.67L49.73 9.67Q49.76 9.80 49.77 9.93L49.77 9.93L49.77 9.93Q49.78 10.01 49.84 10.08L49.84 10.08L49.78 10.14L49.78 10.14Q49.78 10.39 49.73 10.62L49.73 10.62L49.73 10.62Q49.67 10.85 49.50 11.06L49.50 11.06L49.50 11.06Q49.46 11.10 49.37 11.19L49.37 11.19L49.37 11.19Q49.28 11.28 49.17 11.37L49.17 11.37L49.17 11.37Q49.07 11.45 48.97 11.49L48.97 11.49L48.97 11.49Q48.87 11.52 48.80 11.45L48.80 11.45L48.80 11.45Q48.79 11.44 48.79 11.42L48.79 11.42L48.79 11.42Q48.79 11.42 48.78 11.41L48.78 11.41L48.78 11.41Q48.76 11.41 48.75 11.42L48.75 11.42L48.71 11.42L48.71 11.42Q48.61 11.42 48.58 11.40L48.58 11.40L48.58 11.40Q48.51 11.19 48.51 10.91L48.51 10.91L48.51 10.91Q48.51 10.64 48.48 10.44L48.48 10.44L48.48 10.44Q48.45 10.23 48.43 10.02L48.43 10.02L48.43 10.02Q48.41 9.81 48.38 9.59L48.38 9.59L48.38 9.59Q48.02 9.83 47.59 10.00L47.59 10.00L47.59 10.00Q47.15 10.16 46.66 10.30L46.66 10.30L46.66 10.30Q46.58 10.33 46.50 10.35L46.50 10.35L46.50 10.35Q46.42 10.37 46.34 10.40L46.34 10.40L46.34 10.40Q46.13 10.51 45.91 10.61L45.91 10.61L45.91 10.61Q45.70 10.70 45.48 10.74L45.48 10.74L45.48 10.74Q45.26 10.78 45.05 10.75L45.05 10.75L45.05 10.75Q44.84 10.72 44.63 10.57L44.63 10.57L44.63 10.57Q44.25 10.30 43.95 9.93L43.95 9.93L43.95 9.93Q43.64 9.56 43.48 9.13L43.48 9.13L43.48 9.13Q43.43 8.99 43.44 8.82L43.44 8.82L43.44 8.82Q43.46 8.65 43.51 8.47L43.51 8.47L43.51 8.47Q43.43 8.13 43.48 7.92L43.48 7.92L43.48 7.92Q43.57 7.62 43.75 7.34L43.75 7.34L43.75 7.34Q43.93 7.07 44.17 6.82ZM45.70 9.21L45.70 9.21L45.70 9.21Q45.86 9.24 46.19 9.21L46.19 9.21L46.19 9.21Q46.51 9.17 46.89 9.07L46.89 9.07L46.89 9.07Q47.26 8.97 47.64 8.82L47.64 8.82L47.64 8.82Q48.02 8.67 48.29 8.47L48.29 8.47L48.29 8.47Q48.26 8.15 48.24 7.81L48.24 7.81L48.24 7.81Q48.22 7.48 48.19 7.14L48.19 7.14L48.19 7.14Q48.17 7.03 48.17 6.92L48.17 6.92L48.17 6.92Q48.17 6.79 48.16 6.68L48.16 6.68L48.10 6.72L48.10 6.72Q48.09 6.65 48.09 6.57L48.09 6.57L48.09 6.57Q48.09 6.48 48.09 6.41L48.09 6.41L48.09 6.41Q48.06 6.34 48.03 6.28L48.03 6.28L48.03 6.28Q47.99 6.22 47.96 6.15L47.96 6.15L47.84 6.26L47.84 6.26Q47.80 6.19 47.80 6.10L47.80 6.10L47.80 6.10Q47.80 6.01 47.77 5.94L47.77 5.94L47.77 5.94Q47.52 5.85 47.29 5.80L47.29 5.80L47.29 5.80Q47.07 5.75 46.86 5.74L46.86 5.74L46.86 5.74Q46.66 5.74 46.47 5.77L46.47 5.77L46.47 5.77Q46.28 5.80 46.09 5.84L46.09 5.84L46.09 5.84Q45.53 6.06 44.98 6.82L44.98 6.82L44.98 6.82Q44.79 7.06 44.60 7.39L44.60 7.39L44.60 7.39Q44.58 7.81 44.69 8.22L44.69 8.22L44.69 8.22Q44.77 8.34 44.88 8.51L44.88 8.51L44.88 8.51Q44.98 8.68 45.11 8.83L45.11 8.83L45.11 8.83Q45.23 8.97 45.38 9.09L45.38 9.09L45.38 9.09Q45.53 9.20 45.70 9.21ZM54.49 8.79L54.75 8.61L54.75 8.61Q54.74 8.60 54.65 8.48L54.65 8.48L54.65 8.48Q54.56 8.36 54.56 8.34L54.56 8.34L54.56 8.34Q54.25 8.27 53.93 8.21L53.93 8.21L53.93 8.21Q53.61 8.15 53.34 8.09L53.34 8.09L53.34 8.09Q53.07 8.02 52.90 7.98L52.90 7.98L52.90 7.98Q52.72 7.94 52.70 7.92L52.70 7.92L52.70 7.92Q52.63 7.87 52.65 7.78L52.65 7.78L52.65 7.78Q52.67 7.70 52.74 7.60L52.74 7.60L52.74 7.60Q52.54 7.59 52.35 7.57L52.35 7.57L52.35 7.57Q52.15 7.56 51.95 7.53L51.95 7.53L51.94 7.56L51.94 7.56Q51.88 7.55 51.84 7.54L51.84 7.54L51.84 7.54Q51.80 7.53 51.74 7.52L51.74 7.52L51.74 7.52Q51.59 7.50 51.44 7.49L51.44 7.49L51.44 7.49Q51.30 7.48 51.14 7.45L51.14 7.45L51.14 7.45Q51.06 7.38 51.11 7.25L51.11 7.25L51.11 7.25Q51.17 7.13 51.30 7L51.30 7L51.30 7Q51.20 6.99 51.11 6.98L51.11 6.98L51.11 6.98Q51.03 6.97 50.95 6.99L50.95 6.99L50.95 6.99Q50.76 7.03 50.54 7.03L50.54 7.03L50.54 7.03Q50.51 7.03 50.48 7.01L50.48 7.01L50.48 7.01Q50.44 6.99 50.46 7L50.46 7L50.46 7Q50.39 6.93 50.41 6.87L50.41 6.87L50.41 6.87Q50.44 6.80 50.47 6.73L50.47 6.73L50.47 6.73Q50.58 6.51 50.74 6.36L50.74 6.36L50.74 6.36Q50.89 6.22 51.09 6.10L51.09 6.10L51.09 6.10Q51.04 6.03 51.06 5.98L51.06 5.98L50.85 6.02L50.85 6.02Q50.69 6.05 50.71 5.96L50.71 5.96L50.71 5.96Q50.72 5.88 50.78 5.77L50.78 5.77L50.78 5.77Q51.07 5.26 51.60 4.96L51.60 4.96L51.60 4.96Q52.12 4.66 52.75 4.50L52.75 4.50L52.75 4.50Q53.37 4.34 54.01 4.30L54.01 4.30L54.01 4.30Q54.64 4.27 55.17 4.31L55.17 4.31L55.17 4.31Q55.37 4.33 55.54 4.40L55.54 4.40L55.54 4.40Q55.69 4.40 55.83 4.42L55.83 4.42L55.83 4.42Q55.96 4.44 56.06 4.49L56.06 4.49L56.06 4.49Q56.21 4.51 56.36 4.53L56.36 4.53L56.36 4.53Q56.50 4.55 56.62 4.62L56.62 4.62L56.62 4.62Q56.64 4.73 56.59 4.84L56.59 4.84L56.59 4.84Q56.53 4.94 56.45 5.04L56.45 5.04L56.45 5.04Q56.36 5.14 56.27 5.21L56.27 5.21L56.27 5.21Q56.18 5.29 56.11 5.36L56.11 5.36L56.11 5.36Q55.89 5.52 55.64 5.57L55.64 5.57L55.64 5.57Q55.40 5.63 55.15 5.64L55.15 5.64L54.98 5.80L54.98 5.80Q54.94 5.74 54.88 5.63L54.88 5.63L54.88 5.63Q54.64 5.61 54.41 5.59L54.41 5.59L54.41 5.59Q54.18 5.57 53.96 5.56L53.96 5.56L53.96 5.56Q53.65 5.61 53.37 5.68L53.37 5.68L53.37 5.68Q53.37 5.77 53.38 5.84L53.38 5.84L53.38 5.84Q53.38 5.92 53.40 6.01L53.40 6.01L53.40 6.01Q53.72 6.08 54.03 6.15L54.03 6.15L54.03 6.15Q54.33 6.23 54.60 6.29L54.60 6.29L54.60 6.29Q54.94 6.40 55.25 6.46L55.25 6.46L55.25 6.46Q55.57 6.52 55.83 6.59L55.83 6.59L55.83 6.59Q56.10 6.66 56.30 6.75L56.30 6.75L56.30 6.75Q56.50 6.85 56.63 7.01L56.63 7.01L56.63 7.01Q56.88 7.25 56.95 7.62L56.95 7.62L56.95 7.62Q57.01 7.98 56.90 8.32L56.90 8.32L56.90 8.32Q57.01 8.39 56.88 8.56L56.88 8.56L56.88 8.56Q56.76 8.74 56.56 8.89L56.56 8.89L56.56 8.89Q56.38 9.13 56.15 9.30L56.15 9.30L56.15 9.30Q55.92 9.46 55.64 9.59L55.64 9.59L55.64 9.59Q55.13 9.94 54.49 10.18L54.49 10.18L54.49 10.18Q54.00 10.40 53.49 10.56L53.49 10.56L53.49 10.56Q52.85 10.81 52.25 10.95L52.25 10.95L52.25 10.95Q51.65 11.09 51.28 10.93L51.28 10.93L51.28 10.93Q51.23 10.88 51.25 10.81L51.25 10.81L51.25 10.81Q51.30 10.64 51.35 10.56L51.35 10.56L51.35 10.56Q51.11 10.63 50.88 10.70L50.88 10.70L50.88 10.70Q50.64 10.78 50.47 10.81L50.47 10.81L50.47 10.81Q50.40 10.85 50.40 10.82L50.40 10.82L50.40 10.82Q50.36 10.84 50.32 10.84L50.32 10.84L50.32 10.84Q50.29 10.84 50.26 10.84L50.26 10.84L50.26 10.84Q50.20 10.78 50.23 10.70L50.23 10.70L50.23 10.70Q50.25 10.63 50.30 10.54L50.30 10.54L50.30 10.54Q50.34 10.46 50.41 10.39L50.41 10.39L50.41 10.39Q50.47 10.32 50.51 10.28L50.51 10.28L50.81 10.02L50.81 10.02Q50.68 9.94 50.78 9.72L50.78 9.72L50.78 9.72Q50.88 9.51 51.08 9.30L51.08 9.30L51.08 9.30Q51.28 9.10 51.54 8.98L51.54 8.98L51.54 8.98Q51.80 8.86 52.01 8.99L52.01 8.99L52.01 8.99Q51.95 9.04 51.91 9.09L51.91 9.09L51.91 9.09Q51.86 9.14 51.81 9.20L51.81 9.20L51.81 9.20Q51.93 9.24 52.07 9.24L52.07 9.24L52.07 9.24Q52.22 9.24 52.32 9.24L52.32 9.24L52.32 9.24Q52.57 9.25 52.83 9.25L52.83 9.25L52.83 9.25Q53.09 9.24 53.34 9.23L53.34 9.23L53.34 9.23Q53.48 9.16 53.62 9.16L53.62 9.16L53.62 9.16Q53.76 9.16 53.90 9.13L53.90 9.13L53.90 9.13Q54.04 9.11 54.19 9.04L54.19 9.04L54.19 9.04Q54.33 8.97 54.49 8.79L54.49 8.79ZM61.45 4.14L61.45 4.14L61.45 4.14Q61.45 4.23 61.45 4.30L61.45 4.30L61.45 4.30Q61.46 4.38 61.46 4.47L61.46 4.47L61.46 4.47Q61.49 4.63 61.50 4.81L61.50 4.81L61.50 4.81Q61.52 4.98 61.54 5.15L61.54 5.15L61.54 5.15Q61.78 5.12 62.01 5.11L62.01 5.11L62.01 5.11Q62.24 5.10 62.48 5.11L62.48 5.11L62.48 5.11Q62.59 5.10 62.68 5.10L62.68 5.10L62.68 5.10Q62.78 5.10 62.89 5.08L62.89 5.08L62.85 5.12L62.85 5.12Q62.97 5.14 63.10 5.14L63.10 5.14L63.10 5.14Q63.22 5.15 63.35 5.18L63.35 5.18L63.43 5.18L63.41 5.21L63.42 5.21L63.43 5.21L63.43 5.21Q63.57 5.25 63.50 5.38L63.50 5.38L63.50 5.38Q63.43 5.52 63.28 5.67L63.28 5.67L63.28 5.67Q63.13 5.82 62.96 5.96L62.96 5.96L62.96 5.96Q62.79 6.09 62.72 6.12L62.72 6.12L62.72 6.12Q62.71 6.12 62.69 6.13L62.69 6.13L62.69 6.13Q62.68 6.13 62.66 6.13L62.66 6.13L62.59 6.13L62.59 6.13Q62.45 6.15 62.33 6.15L62.33 6.15L62.33 6.15Q62.20 6.16 62.08 6.16L62.08 6.16L62.08 6.16Q61.96 6.17 61.87 6.18L61.87 6.18L61.87 6.18Q61.77 6.19 61.67 6.20L61.67 6.20L61.67 6.20Q61.71 6.64 61.74 7.06L61.74 7.06L61.74 7.06Q61.77 7.49 61.75 7.91L61.75 7.91L61.75 7.91Q61.74 8.25 61.73 8.68L61.73 8.68L61.73 8.68Q61.73 9.11 61.73 9.52L61.73 9.52L61.73 9.52Q61.75 9.74 61.77 9.96L61.77 9.96L61.77 9.96Q61.78 10.18 61.78 10.39L61.78 10.39L61.78 10.39Q61.77 10.47 61.66 10.63L61.66 10.63L61.66 10.63Q61.54 10.79 61.40 10.94L61.40 10.94L61.40 10.94Q61.26 11.09 61.12 11.18L61.12 11.18L61.12 11.18Q60.97 11.27 60.87 11.20L60.87 11.20L60.87 11.20Q60.87 11.20 60.86 11.21L60.86 11.21L60.86 11.19L60.86 11.19Q60.84 11.12 60.84 11.07L60.84 11.07L60.84 11.07Q60.83 11.02 60.82 10.96L60.82 10.96L60.82 10.96Q60.73 11.06 60.64 11.15L60.64 11.15L60.64 11.15Q60.55 11.24 60.46 11.30L60.46 11.30L60.46 11.30Q60.37 11.35 60.29 11.38L60.29 11.38L60.29 11.38Q60.21 11.40 60.16 11.34L60.16 11.34L60.16 11.34Q59.99 10.89 59.98 10.41L59.98 10.41L59.98 10.41Q59.98 9.93 59.96 9.45L59.96 9.45L59.96 9.45Q59.92 8.69 59.90 7.96L59.90 7.96L59.90 7.96Q59.88 7.22 59.89 6.47L59.89 6.47L59.89 6.47Q59.78 6.50 59.69 6.51L59.69 6.51L59.69 6.51Q59.60 6.52 59.49 6.54L59.49 6.54L59.47 6.54L59.22 6.83L59.22 6.83Q58.94 6.83 58.65 6.86L58.65 6.86L58.65 6.86Q58.35 6.89 58.09 6.82L58.09 6.82L58.09 6.82Q58.02 6.76 58.06 6.62L58.06 6.62L58.06 6.62Q58.04 6.62 58.04 6.62L58.04 6.62L58.04 6.62Q58.04 6.61 58.06 6.61L58.06 6.61L58.06 6.61Q58.02 6.58 58.02 6.55L58.02 6.55L58.02 6.55Q57.99 6.55 57.97 6.57L57.97 6.57L57.97 6.57Q57.96 6.58 57.93 6.58L57.93 6.58L57.93 6.58Q57.83 6.59 57.81 6.57L57.81 6.57L57.81 6.57Q57.79 6.55 57.81 6.45L57.81 6.45L57.81 6.45Q57.92 6.01 58.21 5.83L58.21 5.83L58.21 5.83Q58.51 5.66 58.87 5.59L58.87 5.59L58.87 5.59Q59.12 5.50 59.38 5.43L59.38 5.43L59.38 5.43Q59.64 5.36 59.91 5.31L59.91 5.31L59.91 5.31Q59.91 5.12 59.91 4.96L59.91 4.96L59.91 4.96Q59.91 4.77 59.93 4.61L59.93 4.61L59.93 4.61Q59.95 4.49 60.07 4.30L60.07 4.30L60.07 4.30Q60.20 4.12 60.37 3.96L60.37 3.96L60.37 3.96Q60.44 3.70 60.70 3.48L60.70 3.48L60.70 3.48Q60.96 3.26 61.19 3.19L61.19 3.19L61.19 3.19Q61.29 3.21 61.34 3.30L61.34 3.30L61.34 3.30Q61.39 3.39 61.41 3.52L61.41 3.52L61.41 3.52Q61.43 3.65 61.43 3.79L61.43 3.79L61.43 3.79Q61.43 3.93 61.43 4.06L61.43 4.06L61.43 4.06Q61.45 4.09 61.45 4.14ZM64.93 10.86L64.93 10.86L64.93 10.86Q64.61 10.70 64.47 10.42L64.47 10.42L64.47 10.42Q64.33 10.14 64.34 9.82L64.34 9.82L64.34 9.82Q64.34 9.51 64.49 9.20L64.49 9.20L64.49 9.20Q64.64 8.89 64.89 8.67L64.89 8.67L64.89 8.67Q65.06 8.44 65.30 8.26L65.30 8.26L65.30 8.26Q65.53 8.08 65.80 7.98L65.80 7.98L65.80 7.98Q66.07 7.88 66.34 7.90L66.34 7.90L66.34 7.90Q66.61 7.91 66.85 8.08L66.85 8.08L66.85 8.08Q67.37 8.44 67.52 8.84L67.52 8.84L67.52 8.84Q67.66 9.24 67.55 9.60L67.55 9.60L67.55 9.60Q67.44 9.95 67.13 10.26L67.13 10.26L67.13 10.26Q66.82 10.57 66.43 10.76L66.43 10.76L66.43 10.76Q66.04 10.95 65.64 10.99L65.64 10.99L65.64 10.99Q65.24 11.03 64.93 10.86ZM68.17 5.75L68.17 5.75L68.17 5.75Q68.18 5.68 68.26 5.56L68.26 5.56L68.26 5.56Q68.33 5.43 68.44 5.29L68.44 5.29L68.44 5.29Q68.54 5.15 68.66 5.03L68.66 5.03L68.66 5.03Q68.78 4.90 68.91 4.84L68.91 4.84L68.91 4.84Q68.95 4.79 68.99 4.74L68.99 4.74L68.99 4.74Q69.03 4.69 69.10 4.63L69.10 4.63L69.10 4.63Q69.15 4.61 69.22 4.54L69.22 4.54L69.22 4.54Q69.29 4.48 69.36 4.44L69.36 4.44L69.36 4.44Q69.44 4.40 69.52 4.38L69.52 4.38L69.52 4.38Q69.61 4.35 69.66 4.41L69.66 4.41L69.66 4.41Q69.68 4.42 69.68 4.44L69.68 4.44L69.68 4.44Q69.68 4.44 69.69 4.45L69.69 4.45L69.69 4.45Q69.93 4.34 70.17 4.26L70.17 4.26L70.17 4.26Q70.41 4.19 70.66 4.12L70.66 4.12L70.66 4.12Q71.19 3.96 71.64 3.95L71.64 3.95L71.64 3.95Q72.09 3.93 72.51 4.31L72.51 4.31L72.51 4.31Q72.53 4.33 72.56 4.33L72.56 4.33L72.56 4.33Q72.59 4.33 72.62 4.34L72.62 4.34L72.62 4.34Q73.15 4.52 73.52 4.94L73.52 4.94L73.52 4.94Q73.89 5.36 74.09 5.89L74.09 5.89L74.09 5.89Q74.28 6.41 74.31 6.99L74.31 6.99L74.31 6.99Q74.33 7.57 74.16 8.08L74.16 8.08L74.16 8.08Q74.09 8.29 73.95 8.48L73.95 8.48L73.95 8.48Q73.81 8.68 73.63 8.87L73.63 8.87L73.63 8.87Q73.44 9.06 73.26 9.21L73.26 9.21L73.26 9.21Q73.07 9.37 72.91 9.49L72.91 9.49L72.91 9.49Q72.38 9.91 71.72 10.18L71.72 10.18L71.72 10.18Q71.06 10.44 70.43 10.70L70.43 10.70L70.43 10.70Q70.43 10.98 70.43 11.28L70.43 11.28L70.43 11.28Q70.42 11.58 70.43 11.88L70.43 11.88L70.43 11.88Q70.43 12.18 70.49 12.47L70.49 12.47L70.49 12.47Q70.55 12.77 70.67 13.02L70.67 13.02L70.67 13.02Q70.53 13.15 70.40 13.27L70.40 13.27L70.40 13.27Q70.27 13.40 70.14 13.52L70.14 13.52L70.14 13.66L70.14 13.68L70.13 13.68L70.13 13.68Q70.10 13.78 69.99 13.94L69.99 13.94L69.99 13.94Q69.87 14.10 69.73 14.25L69.73 14.25L69.73 14.25Q69.59 14.39 69.45 14.47L69.45 14.47L69.45 14.47Q69.30 14.55 69.22 14.46L69.22 14.46L69.22 14.46Q69.20 14.43 69.20 14.41L69.20 14.41L69.20 14.41Q69.20 14.38 69.19 14.35L69.19 14.35L69.19 14.35Q69.13 14.38 69.08 14.32L69.08 14.32L69.08 14.32Q69.01 14.25 69.01 14.13L69.01 14.13L69.01 14.13Q69.01 14 69.01 13.89L69.01 13.89L69.01 13.89Q68.94 13.73 68.90 13.62L68.90 13.62L68.90 13.62Q68.87 13.50 68.81 13.27L68.81 13.27L68.81 13.27Q68.66 12.74 68.60 12.19L68.60 12.19L68.60 12.19Q68.54 11.63 68.53 11.09L68.53 11.09L68.53 11.09Q68.52 10.85 68.51 10.63L68.51 10.63L68.51 10.63Q68.50 10.40 68.50 10.16L68.50 10.16L68.50 10.16Q68.47 9.95 68.46 9.74L68.46 9.74L68.46 9.74Q68.45 9.52 68.42 9.30L68.42 9.30L68.42 9.30Q68.39 9.03 68.38 8.76L68.38 8.76L68.38 8.76Q68.38 8.50 68.36 8.22L68.36 8.22L68.36 8.22Q68.31 7.81 68.26 7.41L68.26 7.41L68.26 7.41Q68.21 7 68.18 6.59L68.18 6.59L68.18 6.59Q68.17 6.43 68.14 6.17L68.14 6.17L68.14 6.17Q68.11 5.92 68.17 5.75ZM71.82 5.46L71.82 5.46L71.82 5.46Q71.72 5.39 71.63 5.34L71.63 5.34L71.63 5.34Q71.54 5.29 71.44 5.24L71.44 5.24L71.44 5.24Q71.27 5.22 71.09 5.24L71.09 5.24L71.09 5.24Q70.91 5.26 70.70 5.29L70.70 5.29L70.70 5.29Q70.42 5.35 70.37 5.36L70.37 5.36L70.37 5.36Q70.32 5.38 70.27 5.42L70.27 5.42L70.27 5.42Q70.18 6.43 70.22 7.41L70.22 7.41L70.22 7.41Q70.27 8.39 70.34 9.38L70.34 9.38L70.34 9.38Q70.46 9.32 70.53 9.30L70.53 9.30L70.53 9.30Q70.60 9.28 70.67 9.27L70.67 9.27L70.67 9.27Q70.73 9.25 70.80 9.25L70.80 9.25L70.80 9.25Q70.87 9.24 70.98 9.20L70.98 9.20L70.98 9.20Q71.26 8.96 71.55 8.74L71.55 8.74L71.55 8.74Q71.85 8.51 72.09 8.27L72.09 8.27L72.09 8.27Q72.32 8.02 72.46 7.76L72.46 7.76L72.46 7.76Q72.60 7.50 72.59 7.20L72.59 7.20L72.59 7.20Q72.56 6.89 72.39 6.42L72.39 6.42L72.39 6.42Q72.21 5.95 71.93 5.54L71.93 5.54L71.93 5.54Q71.90 5.52 71.88 5.50L71.88 5.50L71.88 5.50Q71.85 5.49 71.82 5.46ZM71.48 9.44L71.48 9.44L71.48 9.44Q71.44 9.51 71.40 9.55L71.40 9.55L71.40 9.55Q71.36 9.60 71.32 9.67L71.32 9.67L71.32 9.67Q71.53 9.59 71.84 9.47L71.84 9.47L71.84 9.47Q72.16 9.35 72.46 9.21L72.46 9.21L72.46 9.21Q72.76 9.07 73.00 8.91L73.00 8.91L73.00 8.91Q73.23 8.75 73.29 8.58L73.29 8.58L73.29 8.58Q73.36 8.43 73.38 8.26L73.38 8.26L73.38 8.26Q73.40 8.09 73.40 7.94L73.40 7.94L73.40 7.94Q73.23 8.19 73.00 8.41L73.00 8.41L73.00 8.41Q72.77 8.62 72.49 8.82L72.49 8.82L72.49 8.82Q72.28 8.97 72.08 9.09L72.08 9.09L72.08 9.09Q71.88 9.21 71.67 9.34L71.67 9.34L71.67 9.34Q71.62 9.37 71.58 9.39L71.58 9.39L71.58 9.39Q71.53 9.41 71.48 9.44ZM75.08 7.41L75.08 7.41L75.08 7.41Q75.04 6.65 75.05 5.92L75.05 5.92L75.05 5.92Q75.07 5.18 75.12 4.42L75.12 4.42L75.12 4.42Q75.12 4.31 75.12 4.19L75.12 4.19L75.12 4.19Q75.12 4.06 75.14 3.95L75.14 3.95L75.14 3.95Q75.17 3.46 75.16 2.90L75.16 2.90L75.16 2.90Q75.15 2.34 75.25 1.85L75.25 1.85L75.25 1.85Q75.28 1.78 75.42 1.60L75.42 1.60L75.42 1.60Q75.56 1.43 75.71 1.27L75.71 1.27L75.71 1.27Q75.74 1.20 75.77 1.14L75.77 1.14L75.77 1.14Q75.80 1.08 75.84 1.01L75.84 1.01L75.84 1.01Q75.98 0.81 76.17 0.62L76.17 0.62L76.17 0.62Q76.36 0.42 76.61 0.35L76.61 0.35L76.68 0.35L76.68 0.35Q76.75 0.38 76.76 0.43L76.76 0.43L76.76 0.43Q76.82 0.77 76.76 1.13L76.76 1.13L76.76 1.13Q76.69 1.50 76.64 1.82L76.64 1.82L76.64 1.82Q76.54 2.45 76.43 3.07L76.43 3.07L76.43 3.07Q76.31 3.68 76.22 4.31L76.22 4.31L76.22 4.31Q76.20 5.57 76.32 6.80L76.32 6.80L76.32 6.80Q76.44 8.04 76.66 9.25L76.66 9.25L76.73 9.20L76.73 9.20Q76.73 9.25 76.73 9.30L76.73 9.30L76.73 9.30Q76.72 9.34 76.72 9.39L76.72 9.39L76.72 9.39Q76.69 9.48 76.59 9.63L76.59 9.63L76.59 9.63Q76.50 9.77 76.36 9.93L76.36 9.93L76.36 9.93Q76.37 10.00 76.37 10.08L76.37 10.08L76.37 10.08Q76.37 10.15 76.37 10.22L76.37 10.22L76.37 10.22Q76.37 10.28 76.38 10.30L76.38 10.30L76.38 10.30Q76.36 10.32 76.35 10.33L76.35 10.33L76.35 10.33Q76.34 10.35 76.31 10.36L76.31 10.36L76.31 10.36Q76.26 10.46 76.15 10.61L76.15 10.61L76.15 10.61Q76.03 10.75 75.91 10.88L75.91 10.88L75.91 10.88Q75.78 11.00 75.66 11.07L75.66 11.07L75.66 11.07Q75.54 11.13 75.46 11.06L75.46 11.06L75.46 11.06Q75.45 11.06 75.45 11.07L75.45 11.07L75.45 11.05L75.45 11.05Q75.38 10.63 75.32 10.21L75.32 10.21L75.32 10.21Q75.26 9.79 75.22 9.37L75.22 9.37L75.22 9.37Q75.21 9.30 75.20 9.23L75.20 9.23L75.20 9.23Q75.19 9.17 75.18 9.10L75.18 9.10L75.18 9.10Q75.11 8.68 75.09 8.26L75.09 8.26L75.09 8.26Q75.07 7.84 75.08 7.41Z"></path></g><!----><!----></svg>